<?xml version="1.0" encoding="utf-8"?>
<svg version="1.1" xmlns:xlink="http://www.w3.org/1999/xlink" width="22px" height="28px" xmlns="http://www.w3.org/2000/svg">
  <g transform="matrix(1 0 0 1 -535 -433 )">
    <path d="M 21.4557291666667 0.4375  C 21.8185763888889 0.729166666666663  22 1.07456140350877  22 1.47368421052632  L 22 26.5263157894737  C 22 26.9254385964912  21.8185763888889 27.2708333333333  21.4557291666667 27.5625  C 21.0928819444444 27.8541666666667  20.6631944444444 28  20.1666666666667 28  C 19.6701388888889 28  19.2404513888889 27.8541666666667  18.8776041666667 27.5625  L 9.33854166666667 19.8947368421053  L 1.83333333333333 19.8947368421053  C 1.33680555555556 19.8947368421053  0.907118055555556 19.7489035087719  0.544270833333333 19.4572368421053  C 0.181423611111111 19.1655701754386  0 18.8201754385965  0 18.4210526315789  L 0 9.57894736842105  C 0 9.17982456140351  0.181423611111111 8.8344298245614  0.544270833333333 8.54276315789474  C 0.907118055555556 8.25109649122807  1.33680555555556 8.10526315789474  1.83333333333333 8.10526315789474  L 9.33854166666667 8.10526315789474  L 18.8776041666667 0.4375  C 19.2404513888889 0.145833333333331  19.6701388888889 0  20.1666666666667 0  C 20.6631944444444 0  21.0928819444444 0.145833333333331  21.4557291666667 0.4375  Z " fill-rule="nonzero" fill="#8c8787" stroke="none" transform="matrix(1 0 0 1 535 433 )" />
  </g>
</svg>