<?xml version="1.0" encoding="utf-8"?>
<svg version="1.1" xmlns:xlink="http://www.w3.org/1999/xlink" width="27px" height="29px" xmlns="http://www.w3.org/2000/svg">
  <g transform="matrix(1 0 0 1 -802 -433 )">
    <path d="M 17.5546875 0.453125  C 17.8515625 0.755208333333329  18 1.11293859649122  18 1.52631578947369  L 18 27.4736842105263  C 18 27.8870614035088  17.8515625 28.2447916666667  17.5546875 28.546875  C 17.2578125 28.8489583333333  16.90625 29  16.5 29  C 16.09375 29  15.7421875 28.8489583333333  15.4453125 28.546875  L 7.640625 20.6052631578947  L 1.5 20.6052631578947  C 1.09375 20.6052631578947  0.7421875 20.4542214912281  0.4453125 20.1521381578947  C 0.1484375 19.8500548245614  0 19.4923245614035  0 19.0789473684211  L 0 9.92105263157895  C 0 9.50767543859649  0.1484375 9.14994517543859  0.4453125 8.84786184210526  C 0.7421875 8.54577850877193  1.09375 8.39473684210526  1.5 8.39473684210526  L 7.640625 8.39473684210526  L 15.4453125 0.453125  C 15.7421875 0.151041666666665  16.09375 0  16.5 0  C 16.90625 0  17.2578125 0.151041666666665  17.5546875 0.453125  Z M 26.00390625 11.1134868421053  C 26.66796875 12.1628289473684  27 13.2916666666667  27 14.5  C 27 15.7083333333333  26.66796875 16.8331962719298  26.00390625 17.8745888157895  C 25.33984375 18.9159813596491  24.4609375 19.6592653508772  23.3671875 20.1044407894737  C 23.2109375 20.1839364035088  23.015625 20.2236842105263  22.78125 20.2236842105263  C 22.375 20.2236842105263  22.0234375 20.0766173245614  21.7265625 19.7824835526316  C 21.4296875 19.4883497807018  21.28125 19.1266447368421  21.28125 18.6973684210526  C 21.28125 18.3634868421053  21.375 18.0812774122807  21.5625 17.8507401315789  C 21.75 17.6202028508772  21.9765625 17.4214638157895  22.2421875 17.2545230263158  C 22.5078125 17.0875822368421  22.7734375 16.9047423245614  23.0390625 16.7060032894737  C 23.3046875 16.507264254386  23.53125 16.2210800438596  23.71875 15.8474506578947  C 23.90625 15.4738212719298  24 15.0246710526316  24 14.5  C 24 13.9753289473684  23.90625 13.5261787280702  23.71875 13.1525493421053  C 23.53125 12.7789199561404  23.3046875 12.492735745614  23.0390625 12.2939967105263  C 22.7734375 12.0952576754386  22.5078125 11.9124177631579  22.2421875 11.7454769736842  C 21.9765625 11.5785361842105  21.75 11.3797971491228  21.5625 11.1492598684211  C 21.375 10.9187225877193  21.28125 10.6365131578947  21.28125 10.3026315789474  C 21.28125 9.87335526315789  21.4296875 9.51165021929824  21.7265625 9.21751644736842  C 22.0234375 8.9233826754386  22.375 8.77631578947369  22.78125 8.77631578947369  C 23.015625 8.77631578947369  23.2109375 8.81606359649123  23.3671875 8.89555921052632  C 24.4609375 9.32483552631579  25.33984375 10.0641447368421  26.00390625 11.1134868421053  Z " fill-rule="nonzero" fill="#8c8787" stroke="none" transform="matrix(1 0 0 1 802 433 )" />
  </g>
</svg>