<?xml version="1.0" encoding="utf-8"?>
<svg version="1.1" xmlns:xlink="http://www.w3.org/1999/xlink" width="65px" height="60px" xmlns="http://www.w3.org/2000/svg">
  <g transform="matrix(1 0 0 1 -75 -570 )">
    <path d="M 107.5 570  C 125.7 570  140 583.2  140 600  C 140 616.8  125.7 630  107.5 630  C 89.3 630  75 616.8  75 600  C 75 583.2  89.3 570  107.5 570  Z " fill-rule="nonzero" fill="#ffffff" stroke="none" />
    <path d="M 107.5 570.5  C 125.42 570.5  139.5 583.48  139.5 600  C 139.5 616.52  125.42 629.5  107.5 629.5  C 89.58 629.5  75.5 616.52  75.5 600  C 75.5 583.48  89.58 570.5  107.5 570.5  Z " stroke-width="1" stroke="#868686" fill="none" />
  </g>
</svg>