<?xml version="1.0" encoding="utf-8"?>
<svg version="1.1" xmlns:xlink="http://www.w3.org/1999/xlink" width="37px" height="40px" xmlns="http://www.w3.org/2000/svg">
  <g transform="matrix(1 0 0 1 -67 -110 )">
    <path d="M 85.5 110  C 95.86 110  104 118.8  104 130  C 104 141.2  95.86 150  85.5 150  C 75.14 150  67 141.2  67 130  C 67 118.8  75.14 110  85.5 110  Z " fill-rule="nonzero" fill="#ffffff" stroke="none" />
    <path d="M 85.5 110.5  C 95.58 110.5  103.5 119.08  103.5 130  C 103.5 140.92  95.58 149.5  85.5 149.5  C 75.42 149.5  67.5 140.92  67.5 130  C 67.5 119.08  75.42 110.5  85.5 110.5  Z " stroke-width="1" stroke="#797979" fill="none" />
  </g>
</svg>