<?xml version="1.0" encoding="utf-8"?>
<svg version="1.1" xmlns:xlink="http://www.w3.org/1999/xlink" width="37px" height="40px" xmlns="http://www.w3.org/2000/svg">
  <g transform="matrix(1 0 0 1 -192 -110 )">
    <path d="M 210.5 110  C 220.86 110  229 118.8  229 130  C 229 141.2  220.86 150  210.5 150  C 200.14 150  192 141.2  192 130  C 192 118.8  200.14 110  210.5 110  Z " fill-rule="nonzero" fill="#4f4f4f" stroke="none" />
    <path d="M 210.5 110.5  C 220.58 110.5  228.5 119.08  228.5 130  C 228.5 140.92  220.58 149.5  210.5 149.5  C 200.42 149.5  192.5 140.92  192.5 130  C 192.5 119.08  200.42 110.5  210.5 110.5  Z " stroke-width="1" stroke="#797979" fill="none" />
  </g>
</svg>