<?xml version="1.0" encoding="utf-8"?>
<svg version="1.1" xmlns:xlink="http://www.w3.org/1999/xlink" width="170px" height="170px" xmlns="http://www.w3.org/2000/svg">
  <defs>
    <linearGradient gradientUnits="userSpaceOnUse" x1="299" y1="274" x2="166.4" y2="274" id="LinearGradient83">
      <stop id="Stop84" stop-color="#facd91" offset="0" />
      <stop id="Stop85" stop-color="#d9001b" offset="1" />
    </linearGradient>
  </defs>
  <g transform="matrix(1 0 0 1 -129 -189 )">
    <path d="M 214 189  C 261.6 189  299 226.4  299 274  C 299 321.6  261.6 359  214 359  C 166.4 359  129 321.6  129 274  C 129 226.4  166.4 189  214 189  Z " fill-rule="nonzero" fill="url(#LinearGradient83)" stroke="none" />
    <path d="M 214 189.5  C 261.32 189.5  298.5 226.68  298.5 274  C 298.5 321.32  261.32 358.5  214 358.5  C 166.68 358.5  129.5 321.32  129.5 274  C 129.5 226.68  166.68 189.5  214 189.5  Z " stroke-width="1" stroke="#797979" fill="none" />
  </g>
</svg>