<?xml version="1.0" encoding="utf-8"?>
<svg version="1.1" xmlns:xlink="http://www.w3.org/1999/xlink" width="65px" height="60px" xmlns="http://www.w3.org/2000/svg">
  <g transform="matrix(1 0 0 1 -217 -633 )">
    <path d="M 249.5 633  C 267.7 633  282 646.2  282 663  C 282 679.8  267.7 693  249.5 693  C 231.3 693  217 679.8  217 663  C 217 646.2  231.3 633  249.5 633  Z " fill-rule="nonzero" fill="#ffffff" stroke="none" />
    <path d="M 249.5 633.5  C 267.42 633.5  281.5 646.48  281.5 663  C 281.5 679.52  267.42 692.5  249.5 692.5  C 231.58 692.5  217.5 679.52  217.5 663  C 217.5 646.48  231.58 633.5  249.5 633.5  Z " stroke-width="1" stroke="#797979" fill="none" />
  </g>
</svg>