<?xml version="1.0" encoding="utf-8"?>
<svg version="1.1" xmlns:xlink="http://www.w3.org/1999/xlink" width="27px" height="26px" xmlns="http://www.w3.org/2000/svg">
  <g transform="matrix(1 0 0 1 -836 -275 )">
    <path d="M 26.5122580645161 3.58922558922559  C 26.8374193548387 3.99775533108866  27 4.49382716049383  27 5.07744107744108  C 27 5.66105499438832  26.8374193548387 6.15712682379349  26.5122580645161 6.56565656565656  L 13.9006451612903 22.4107744107744  L 11.5316129032258 25.3872053872054  C 11.2064516129032 25.7957351290685  10.8116129032258 26  10.3470967741935 26  C 9.88258064516129 26  9.48774193548387 25.7957351290685  9.16258064516129 25.3872053872054  L 6.79354838709677 22.4107744107744  L 0.487741935483871 14.4882154882155  C 0.16258064516129 14.0796857463524  0 13.5836139169472  0 13  C 0 12.4163860830527  0.16258064516129 11.9203142536476  0.487741935483871 11.5117845117845  L 2.85677419354839 8.53535353535354  C 3.18193548387097 8.12682379349046  3.57677419354839 7.92255892255892  4.04129032258065 7.92255892255892  C 4.5058064516129 7.92255892255892  4.90064516129032 8.12682379349046  5.2258064516129 8.53535353535354  L 10.3470967741935 14.9915824915825  L 21.7741935483871 0.612794612794613  C 22.0993548387097 0.204264870931537  22.4941935483871 0  22.9587096774194 0  C 23.4232258064516 0  23.818064516129 0.204264870931537  24.1432258064516 0.612794612794613  L 26.5122580645161 3.58922558922559  Z " fill-rule="nonzero" fill="#000000" stroke="none" transform="matrix(1 0 0 1 836 275 )" />
  </g>
</svg>